<?xml version="1.0" standalone="no"?>
<!DOCTYPE svg PUBLIC "-//W3C//DTD SVG 1.0//EN" "http://www.w3.org/TR/2001/REC-SVG-20010904/DTD/svg10.dtd">
<svg xmlns="http://www.w3.org/2000/svg" xmlns:xlink="http://www.w3.org/1999/xlink" id="body_1" width="214" height="86">

<g transform="matrix(0.27054363 0 0 0.26875 0 0)">
	<g transform="matrix(1 0 0 1 394.2857 -235.21933)">
        <path d="M376.8633 262.87607C 371.40598 275.6752 382.00473 295.95767 366.73294 299.9336L366.73294 299.9336L-107.68361 298.34323L-158.0195 299.38892L-165.14343 310.2818L-224.52039 535.53516L-232.74449 539.2714L-312.88324 537.8662L-320.4102 522.235C -342.71875 430.3973 -367.81592 340.08463 -389.2857 248.3559C -368.7527 245.66537 -344.83197 244.1077 -323.98306 248.49751C -302.2518 315.5866 -292.37198 386.9893 -273.4402 456.45303L-273.4402 456.45303L-270.95663 458.4682L-265.09628 451.84534L-213.99788 251.48215L-208.27914 246.6893L330.5251 247.56073C 345.96027 252.37537 378.19223 236.55894 376.8633 262.87607" stroke="none" fill="#231F20" fill-rule="nonzero" />
        <path d="M377.60403 349.39813C 378.94385 364.47385 364.59796 378.29688 354.1299 387.0983C 334.59903 378.42758 310.49313 360.54153 286.4853 373.47134C 278.9801 379.10294 273.70795 389.21152 279.18707 397.54456C 312.43207 422.41293 371.75455 408.8622 384.25955 459.30704C 390.4358 481.0165 385.49045 508.78238 368.29062 524.1631C 340.5792 550.01184 300.39545 555.48004 261.66046 544.3367C 244.6676 536.75525 225.67046 531.6574 210.95421 518.0413C 216.6076 502.60614 226.56367 489.404 237.24957 477.87936C 258.8501 483.22775 277.67297 500.74347 304.36047 497.61722C 313.18365 497.47562 324.28348 491.3756 328.64062 481.9424C 331.78867 444.36203 283.79474 458.88223 261.7149 448.18542C 239.25385 442.80435 221.50938 423.64383 217.08688 402.16312C 212.74065 379.70206 218.96046 358.16687 236.10582 343.72296C 276.2569 316.26205 339.41367 320.5974 377.60403 349.39813" stroke="none" fill="#231F20" fill-rule="nonzero" />
        <path d="M194.2228 338.48322C 195.82404 403.0125 195.55173 470.02536 193.72173 534.20605C 172.92725 539.56537 149.51851 534.925 127.49315 534.8814C 109.70512 505.24194 98.81226 476.89874 78.40994 447.03052C 75.82834 445.93036 74.6628 449.3725 72.85458 450.04785L72.85458 450.04785L71.177086 532.9098C 57.288696 540.513 37.659767 533.60693 21.549234 536.6569L21.549234 536.6569L18.009056 525.73145C 18.662626 464.97107 16.277092 398.6118 21.18977 339.07144C 39.18477 335.2916 59.48905 335.19357 79.68441 335.98877L79.68441 335.98877L85.53387 340.0082L130.78279 421.35608L137.06796 420.14697C 135.51028 396.17178 140.72797 365.8134 139.40994 339.18036C 154.96494 332.5466 177.62209 336.17395 194.2228 338.48322" stroke="none" fill="#231F20" fill-rule="nonzero" />
        <path d="M-81.912155 444.18768C -83.28466 428.18607 -89.87484 412.7291 -96.573944 398.87338C -105.64769 411.3457 -105.32091 429.01392 -109.24233 443.67572C -101.8243 450.48373 -90.103584 447.12875 -81.912155 444.18768zM-33.929127 387.34875L2.354976 534.20624C -13.145558 539.9032 -33.10127 535.6114 -50.736805 535.87286C -59.440197 523.6837 -53.96109 500.35123 -74.003944 497.78052C -92.641624 498.9134 -116.79108 491.62607 -129.4268 506.39676L-129.4268 506.39676L-138.1193 536.4937C -155.0359 538.66144 -175.38376 538.7921 -190.89519 534.74C -173.89143 468.2609 -154.2952 402.90375 -133.88197 337.5575C -108.70858 332.61215 -76.23698 334.46393 -50.14859 337.5248L-50.14859 337.5248L-33.929127 387.34875z" stroke="none" fill="#231F20" fill-rule="nonzero" />
        <path d="M385.8717 315.4775C 385.46866 315.29233 384.89133 315.19427 384.12885 315.19427L384.12885 315.19427L383.4317 315.19427L383.4317 318.47305L384.56454 318.47305C 385.27258 318.49484 385.80634 318.34232 386.1876 318.1027C 386.57974 317.7868 386.7758 317.32928 386.7758 316.7193C 386.7867 316.0984 386.4599 315.67358 385.8717 315.4775zM380.55597 324.39877L380.55597 313.3207C 381.264 313.29895 382.27704 313.3207 383.66046 313.3207C 385.03296 313.3425 385.80634 313.3207 385.92615 313.3207C 386.84116 313.38608 387.57098 313.57126 388.13742 313.91983C 389.12866 314.4318 389.60794 315.3359 389.60794 316.53412C 389.60794 317.48178 389.3683 318.15714 388.84546 318.5384C 388.33347 318.96323 387.7017 319.21375 386.9392 319.26822C 387.64722 319.42072 388.1592 319.66037 388.51865 319.93268C 389.17224 320.48822 389.5426 321.33786 389.5317 322.45984L389.5317 322.45984L389.5426 323.4293C 389.5317 323.5382 389.57526 323.64716 389.5317 323.77786C 389.5317 323.86502 389.57526 323.99573 389.57526 324.08286L389.57526 324.08286L389.65152 324.44232L386.90652 324.38785C 386.81937 324.07196 386.75403 323.5382 386.73224 322.85196C 386.72134 322.2093 386.65598 321.7736 386.53616 321.51215C 386.38367 321.10913 386.10046 320.8259 385.7301 320.6734C 385.49045 320.60803 385.15277 320.5318 384.69528 320.51L384.69528 320.51L384.06348 320.51L383.4317 320.48822L383.4317 324.40964L380.55597 324.39877zM379.13992 313.09198C 377.53867 314.68234 376.74347 316.61038 376.74347 318.87607C 376.74347 321.14178 377.56046 323.1243 379.18347 324.7582C 380.80652 326.37036 382.72366 327.16553 384.9785 327.13287C 387.2551 327.17645 389.2267 326.32678 390.86063 324.71466C 392.4292 323.0916 393.24615 321.12 393.24615 318.87607C 393.24615 316.61038 392.4292 314.68234 390.83884 313.10287C 389.17224 311.41446 387.2551 310.5866 384.9785 310.5866C 382.72366 310.5866 380.76294 311.41446 379.13992 313.09198M392.0044 326.04358C 390.03278 327.91714 387.7017 328.8866 384.9785 328.86484C 382.14633 328.83215 379.7717 327.88446 377.83276 325.96732C 375.9374 324.03928 375.00064 321.63196 374.95706 318.83252C 374.95706 315.9132 376.01367 313.4732 378.1051 311.5561C 380.0658 309.7043 382.3424 308.82196 385.00027 308.7893C 387.74527 308.7893 390.1526 309.76965 392.04794 311.71948C 394.03046 313.72375 394.9999 316.06573 394.9999 318.83252C 395.0108 321.68643 394.03046 324.11554 392.0044 326.04358" stroke="none" fill="#231F20" fill-rule="nonzero" />
	</g>
</g>
</svg>